# xmcd CD database file
#
# Track frame offsets:
#	150
#	15851
#	28583
#	46836
#	62411
#	78529
#	96541
#
# Disc length: 1507 seconds
#
# Revision: 0
# Processed by: cddbd v1.5.2PL0 Copyright (c) Steve Scherf et al.
# Submitted via: CDex 1.70beta2
#
DISCID=4905e107
DTITLE=Sadie Rennard - Belle Jerriaise
DYEAR=2009
DGENRE=Country
TTITLE0=Five Minutes
TTITLE1=What part of no don't you understand
TTITLE2=Blanket on the ground
TTITLE3=He's a heartache looking for a place to happen
TTITLE4=The fool
TTITLE5=I love this bar
TTITLE6=Man Bieau P'tit Jerri
EXTD=YEAR: 2009
EXTT0=
EXTT1=
EXTT2=
EXTT3=
EXTT4=
EXTT5=
EXTT6=
PLAYORDER=
